<?xml version="1.0" encoding="UTF-8" standalone="no"?>
<svg width="75px" height="18px" viewBox="0 0 75 18" version="1.1" xmlns="http://www.w3.org/2000/svg" xmlns:xlink="http://www.w3.org/1999/xlink">
    <!-- Generator: sketchtool 41.2 (35397) - http://www.bohemiancoding.com/sketch -->
    <title>4A877160-B113-413B-96DB-CED327840EB5</title>
    <desc>Created with sketchtool.</desc>
    <defs></defs>
    <g id="Page-1" stroke="none" stroke-width="1" fill="none" fill-rule="evenodd">
        <g id="desktop-normal" transform="translate(-1042.000000, -1962.000000)" fill="#FFFFFF">
            <g id="btn-next" transform="translate(896.000000, 1916.000000)">
                <g id="Group-2" transform="translate(33.000000, 21.000000)">
                    <g id="icon-arrow" transform="translate(150.500000, 34.000000) rotate(-180.000000) translate(-150.500000, -34.000000) translate(113.000000, 25.000000)">
                        <polygon id="Shape" points="58.44375 0.81625 54.1525 0.81625 47.2575 7.36625 13.9 7.36625 15.065 6.13 20.72125 0.12625 8.24875 0.12625 2.27373675e-13 8.87125 2.27373675e-13 9.12875 8.24875 17.87375 20.72125 17.87375 15.06 11.87125 13.89375 10.635 47.2575 10.635 54.1525 17.18375 58.4425 17.18375 51.64625 9.00125"></polygon>
                        <polygon id="Shape" points="66.72125 0.81625 61.76375 0.81625 54.9675 9.00125 61.7625 17.18375 66.72 17.18375 59.925 9.00125"></polygon>
                        <polygon id="Shape" points="75 0.81625 70.0425 0.81625 63.245 9.00125 70.0425 17.18375 74.99875 17.18375 68.20375 9.00125"></polygon>
                    </g>
                </g>
            </g>
        </g>
    </g>
</svg>